# xmcd CD database file
#
# Track frame offsets:
#	150
#	15450
#	28346
#	41085
#	58607
#	59737
#	62021
#	63128
#	65643
#	68475
#	70825
#	86610
#	101713
#	118264
#	123447
#	127511
#	134354
#	151361
#	168345
#	184166
#	200501
#	217257
#	230562
#	249500
#	263669
#	275671
#
# Disc length: 3878 seconds
#
# Revision: 0
# Processed by: cddbd v1.5.2PL0 Copyright (c) Steve Scherf et al.
# Submitted via: CDex 1.79
#
DISCID=890f241a
DTITLE=Various Artist - Country wat skop vol 2
DYEAR=1900
DGENRE=Country
TTITLE0=Burger dance
TTITLE1=Prettywoman
TTITLE2=Jambalayo
TTITLE3=Love minus zero
TTITLE4=The good, the bad and the ugly
TTITLE5=Deep in the heart of Texas
TTITLE6=Rawhide
TTITLE7=Yellow rose of Texas
TTITLE8=Ghostriders in the sky
TTITLE9=Swamp thing
TTITLE10=Teenage Queenie
TTITLE11=Cowboy beat
TTITLE12=Ka-Ching
TTITLE13=Needles and pins
TTITLE14=Green green grass of home
TTITLE15=Cecilia
TTITLE16=Woman, beautiful woman
TTITLE17=Apache
TTITLE18=Sunflower
TTITLE19=30 Dae in die somer
TTITLE20=The gambler
TTITLE21=Hamsterdance
TTITLE22=Tulsa time
TTITLE23=I like it, I love it
TTITLE24=Do you wanna make something of it
TTITLE25=Because it's love
EXTD=
EXTT0=
EXTT1=
EXTT2=
EXTT3=
EXTT4=
EXTT5=
EXTT6=
EXTT7=
EXTT8=
EXTT9=
EXTT10=
EXTT11=
EXTT12=
EXTT13=
EXTT14=
EXTT15=
EXTT16=
EXTT17=
EXTT18=
EXTT19=
EXTT20=
EXTT21=
EXTT22=
EXTT23=
EXTT24=
EXTT25=
PLAYORDER=
